<?xml version="1.0" encoding="UTF-8"?>
<svg id="Layer_1" data-name="Layer 1" xmlns="http://www.w3.org/2000/svg" xmlns:xlink="http://www.w3.org/1999/xlink" viewBox="0 0 498 504">
  <defs>
    <style>
      .cls-1 {
        fill: url(#Blue_Green);
      }

      .cls-2 {
        fill: url(#linear-gradient);
      }
    </style>
    <linearGradient id="Blue_Green" data-name="Blue Green" x1="0" y1="252" x2="335.92" y2="252" gradientUnits="userSpaceOnUse">
      <stop offset="0" stop-color="#89cfc2"/>
      <stop offset=".5" stop-color="#00b5a7"/>
      <stop offset="1" stop-color="#00a084"/>
    </linearGradient>
    <linearGradient id="linear-gradient" x1="208.43" y1="229.82" x2="498" y2="229.82" gradientUnits="userSpaceOnUse">
      <stop offset="0" stop-color="#45a7c9"/>
      <stop offset="1" stop-color="#0080a8"/>
    </linearGradient>
  </defs>
  <path class="cls-1" d="M326.54,341.79c-18.92-37.97-60.54-56.13-95.27-79.34-16.71-11.17-32.23-24.13-46.36-38.54C122.32,160.09,131.84,52.21,205.35,2.3c1.14-.77,2.3-1.54,3.47-2.3,0,0-68.17,29.07-96.91,95.98-12.52,29.15-14.59,62.13-5.33,92.55,.05,.16,.1,.32,.15,.48,8.33,27.02,23.88,51.12,44.79,69.44,36.06,31.6,84.83,49.52,109.99,93.12,20.8,36.05,16.57,99.32-34.93,103.58,47.24-6.07,50.86-63.97,30.45-97.32-27.86-45.54-83.6-59.4-121.93-92.72-30.59-26.59-50.51-64.65-56.5-104.97H32.25c-17.81,0-32.25,14.9-32.25,33.28v102.65c0,18.38,14.44,33.28,32.25,33.28H115.34c29.89,0,54.12,25,54.12,55.84v85.73c0,15.41,10.16,28.35,23.95,32.12,3.01,.83,6.14,1.06,9.25,.93,2.34-.1,4.69-.23,7.03-.43,38.42-3.2,76.85-19.69,101.5-50.26,10.88-13.5,18.58-29.93,22.27-47.1,3.2-14.9,3.37-30.35,0-44.97-1.55-6.7-3.82-13.22-6.91-19.42Z"/>
  <path class="cls-2" d="M465.75,163.53h-83.09c-29.89,0-54.12-25-54.12-55.84V32.07c-12.37-.49-24.95,2.61-36.1,9.68-31.24,19.8-41.25,61.51-23.35,94.61,17.06,31.53,54.92,43.27,83.25,61.55,34.46,22.23,56.4,60.49,50.11,103.51,2.53-31.37-9.74-63.35-33.46-83.43-30.51-25.84-73.12-31.44-101.18-61.03-45.28-47.77-21.31-128.39,39.75-146.19,2.8-.82,5.62-1.46,8.46-1.96-6.62-3.42-14.05-5.34-21.41-5.42-18.49-.19-36.06,9.33-49.7,22.2-22.98,21.69-36.57,53.62-36.49,85.76,.08,32.14,13.83,63.99,36.92,85.56,22.95,21.43,52.51,33.55,77.94,51.74,74.95,53.63,69.21,159.38,17.55,207.6,0,0,55.87-29.21,64.54-123.52h60.37c17.81,0,32.25-14.9,32.25-33.28v-102.65c0-18.38-14.44-33.28-32.25-33.28Z"/>
</svg>